<mxfile host="app.diagrams.net" modified="2023-04-16T12:29:28.426Z" agent="Mozilla/5.0 (Windows NT 10.0; Win64; x64) AppleWebKit/537.36 (KHTML, like Gecko) Chrome/112.0.0.0 Safari/537.36 Edg/112.0.1722.39" etag="ab-uQxlSmsUvDl4vrbta" version="21.1.7" type="github">
  <diagram name="第 1 页" id="TmF-eybLoOuhkbg1tgr5">
    <mxGraphModel dx="1518" dy="1853" grid="1" gridSize="10" guides="1" tooltips="1" connect="1" arrows="1" fold="1" page="1" pageScale="1" pageWidth="827" pageHeight="1169" math="0" shadow="0">
      <root>
        <mxCell id="0" />
        <mxCell id="1" parent="0" />
        <mxCell id="l6QmSuYRG5UoU8oP4cPs-2" value="&lt;font style=&quot;font-size: 24px;&quot;&gt;&lt;b style=&quot;&quot;&gt;个&lt;br&gt;人&lt;br&gt;知&lt;br&gt;识&lt;br&gt;库&lt;/b&gt;&lt;/font&gt;" style="rounded=0;whiteSpace=wrap;html=1;" vertex="1" parent="1">
          <mxGeometry x="150" y="130" width="60" height="440" as="geometry" />
        </mxCell>
        <mxCell id="l6QmSuYRG5UoU8oP4cPs-10" value="&lt;font style=&quot;font-size: 14px;&quot;&gt;&lt;b&gt;后台管理系统&lt;/b&gt;&lt;/font&gt;" style="rounded=0;whiteSpace=wrap;html=1;" vertex="1" parent="1">
          <mxGeometry x="320" y="510" width="120" height="60" as="geometry" />
        </mxCell>
        <mxCell id="l6QmSuYRG5UoU8oP4cPs-11" value="&lt;font style=&quot;font-size: 14px;&quot;&gt;&lt;b&gt;在线阅读系统&lt;/b&gt;&lt;/font&gt;" style="rounded=0;whiteSpace=wrap;html=1;" vertex="1" parent="1">
          <mxGeometry x="320" y="135" width="120" height="60" as="geometry" />
        </mxCell>
        <mxCell id="l6QmSuYRG5UoU8oP4cPs-17" value="" style="endArrow=none;html=1;rounded=0;" edge="1" parent="1">
          <mxGeometry width="50" height="50" relative="1" as="geometry">
            <mxPoint x="290" y="350" as="sourcePoint" />
            <mxPoint x="320" y="160" as="targetPoint" />
            <Array as="points">
              <mxPoint x="290" y="160" />
              <mxPoint x="320" y="160" />
            </Array>
          </mxGeometry>
        </mxCell>
        <mxCell id="l6QmSuYRG5UoU8oP4cPs-20" value="" style="endArrow=none;html=1;rounded=0;exitX=1;exitY=0.5;exitDx=0;exitDy=0;entryX=0;entryY=0.5;entryDx=0;entryDy=0;" edge="1" parent="1" source="l6QmSuYRG5UoU8oP4cPs-2" target="l6QmSuYRG5UoU8oP4cPs-10">
          <mxGeometry width="50" height="50" relative="1" as="geometry">
            <mxPoint x="390" y="240" as="sourcePoint" />
            <mxPoint x="290" y="340" as="targetPoint" />
            <Array as="points">
              <mxPoint x="290" y="350" />
              <mxPoint x="290" y="540" />
            </Array>
          </mxGeometry>
        </mxCell>
        <mxCell id="l6QmSuYRG5UoU8oP4cPs-21" value="" style="endArrow=none;html=1;rounded=0;exitX=1;exitY=0.5;exitDx=0;exitDy=0;" edge="1" parent="1" source="l6QmSuYRG5UoU8oP4cPs-11">
          <mxGeometry width="50" height="50" relative="1" as="geometry">
            <mxPoint x="410" y="265" as="sourcePoint" />
            <mxPoint x="490" y="165" as="targetPoint" />
          </mxGeometry>
        </mxCell>
        <mxCell id="l6QmSuYRG5UoU8oP4cPs-24" value="在线阅读教程" style="rounded=1;whiteSpace=wrap;html=1;" vertex="1" parent="1">
          <mxGeometry x="690" y="40" width="110" height="30" as="geometry" />
        </mxCell>
        <mxCell id="l6QmSuYRG5UoU8oP4cPs-25" value="目录导航" style="rounded=1;whiteSpace=wrap;html=1;" vertex="1" parent="1">
          <mxGeometry x="690" width="110" height="30" as="geometry" />
        </mxCell>
        <mxCell id="l6QmSuYRG5UoU8oP4cPs-26" value="站内搜索" style="rounded=1;whiteSpace=wrap;html=1;" vertex="1" parent="1">
          <mxGeometry x="690" y="80" width="110" height="30" as="geometry" />
        </mxCell>
        <mxCell id="l6QmSuYRG5UoU8oP4cPs-27" value="流量数据统计" style="rounded=1;whiteSpace=wrap;html=1;" vertex="1" parent="1">
          <mxGeometry x="690" y="120" width="110" height="30" as="geometry" />
        </mxCell>
        <mxCell id="l6QmSuYRG5UoU8oP4cPs-30" value="&lt;b&gt;文档阅读模块&lt;/b&gt;" style="rounded=0;whiteSpace=wrap;html=1;" vertex="1" parent="1">
          <mxGeometry x="510" y="45" width="120" height="60" as="geometry" />
        </mxCell>
        <mxCell id="l6QmSuYRG5UoU8oP4cPs-31" value="" style="endArrow=none;html=1;rounded=0;" edge="1" parent="1">
          <mxGeometry width="50" height="50" relative="1" as="geometry">
            <mxPoint x="490" y="250" as="sourcePoint" />
            <mxPoint x="490" y="75" as="targetPoint" />
          </mxGeometry>
        </mxCell>
        <mxCell id="l6QmSuYRG5UoU8oP4cPs-34" value="&lt;b&gt;用户中心模块&lt;/b&gt;" style="rounded=0;whiteSpace=wrap;html=1;" vertex="1" parent="1">
          <mxGeometry x="510" y="220" width="120" height="60" as="geometry" />
        </mxCell>
        <mxCell id="l6QmSuYRG5UoU8oP4cPs-35" value="个人信息修改" style="rounded=1;whiteSpace=wrap;html=1;" vertex="1" parent="1">
          <mxGeometry x="690" y="210" width="110" height="30" as="geometry" />
        </mxCell>
        <mxCell id="l6QmSuYRG5UoU8oP4cPs-36" value="用户注册登录" style="rounded=1;whiteSpace=wrap;html=1;" vertex="1" parent="1">
          <mxGeometry x="690" y="165" width="110" height="30" as="geometry" />
        </mxCell>
        <mxCell id="l6QmSuYRG5UoU8oP4cPs-37" value="收藏列表" style="rounded=1;whiteSpace=wrap;html=1;" vertex="1" parent="1">
          <mxGeometry x="690" y="250" width="110" height="30" as="geometry" />
        </mxCell>
        <mxCell id="l6QmSuYRG5UoU8oP4cPs-38" value="退出系统" style="rounded=1;whiteSpace=wrap;html=1;" vertex="1" parent="1">
          <mxGeometry x="690" y="290" width="110" height="30" as="geometry" />
        </mxCell>
        <mxCell id="l6QmSuYRG5UoU8oP4cPs-39" value="" style="endArrow=none;html=1;rounded=0;entryX=0;entryY=0.5;entryDx=0;entryDy=0;" edge="1" parent="1" target="l6QmSuYRG5UoU8oP4cPs-30">
          <mxGeometry width="50" height="50" relative="1" as="geometry">
            <mxPoint x="490" y="75" as="sourcePoint" />
            <mxPoint x="500" y="175" as="targetPoint" />
          </mxGeometry>
        </mxCell>
        <mxCell id="l6QmSuYRG5UoU8oP4cPs-44" value="" style="endArrow=none;html=1;rounded=0;entryX=0;entryY=0.5;entryDx=0;entryDy=0;" edge="1" parent="1" target="l6QmSuYRG5UoU8oP4cPs-34">
          <mxGeometry width="50" height="50" relative="1" as="geometry">
            <mxPoint x="490" y="250" as="sourcePoint" />
            <mxPoint x="520" y="85" as="targetPoint" />
          </mxGeometry>
        </mxCell>
        <mxCell id="l6QmSuYRG5UoU8oP4cPs-45" value="" style="endArrow=none;html=1;rounded=0;exitX=1;exitY=0.5;exitDx=0;exitDy=0;" edge="1" parent="1" source="l6QmSuYRG5UoU8oP4cPs-30">
          <mxGeometry width="50" height="50" relative="1" as="geometry">
            <mxPoint x="510" y="95" as="sourcePoint" />
            <mxPoint x="670" y="75" as="targetPoint" />
          </mxGeometry>
        </mxCell>
        <mxCell id="l6QmSuYRG5UoU8oP4cPs-46" value="" style="endArrow=none;html=1;rounded=0;" edge="1" parent="1">
          <mxGeometry width="50" height="50" relative="1" as="geometry">
            <mxPoint x="670" y="140" as="sourcePoint" />
            <mxPoint x="670" y="10" as="targetPoint" />
          </mxGeometry>
        </mxCell>
        <mxCell id="l6QmSuYRG5UoU8oP4cPs-47" value="" style="endArrow=none;html=1;rounded=0;exitX=0;exitY=0.5;exitDx=0;exitDy=0;" edge="1" parent="1" source="l6QmSuYRG5UoU8oP4cPs-25">
          <mxGeometry width="50" height="50" relative="1" as="geometry">
            <mxPoint x="500" y="265" as="sourcePoint" />
            <mxPoint x="670" y="15" as="targetPoint" />
          </mxGeometry>
        </mxCell>
        <mxCell id="l6QmSuYRG5UoU8oP4cPs-48" value="" style="endArrow=none;html=1;rounded=0;exitX=0;exitY=0.5;exitDx=0;exitDy=0;" edge="1" parent="1" source="l6QmSuYRG5UoU8oP4cPs-24">
          <mxGeometry width="50" height="50" relative="1" as="geometry">
            <mxPoint x="700" y="10" as="sourcePoint" />
            <mxPoint x="670" y="55" as="targetPoint" />
          </mxGeometry>
        </mxCell>
        <mxCell id="l6QmSuYRG5UoU8oP4cPs-49" value="" style="endArrow=none;html=1;rounded=0;exitX=0;exitY=0.5;exitDx=0;exitDy=0;" edge="1" parent="1" source="l6QmSuYRG5UoU8oP4cPs-26">
          <mxGeometry width="50" height="50" relative="1" as="geometry">
            <mxPoint x="710" y="20" as="sourcePoint" />
            <mxPoint x="670" y="95" as="targetPoint" />
          </mxGeometry>
        </mxCell>
        <mxCell id="l6QmSuYRG5UoU8oP4cPs-50" value="" style="endArrow=none;html=1;rounded=0;exitX=0;exitY=0.5;exitDx=0;exitDy=0;" edge="1" parent="1" source="l6QmSuYRG5UoU8oP4cPs-27">
          <mxGeometry width="50" height="50" relative="1" as="geometry">
            <mxPoint x="720" y="30" as="sourcePoint" />
            <mxPoint x="670" y="135" as="targetPoint" />
          </mxGeometry>
        </mxCell>
        <mxCell id="l6QmSuYRG5UoU8oP4cPs-53" value="" style="endArrow=none;html=1;rounded=0;" edge="1" parent="1">
          <mxGeometry width="50" height="50" relative="1" as="geometry">
            <mxPoint x="670" y="310" as="sourcePoint" />
            <mxPoint x="670" y="175" as="targetPoint" />
          </mxGeometry>
        </mxCell>
        <mxCell id="l6QmSuYRG5UoU8oP4cPs-59" value="" style="endArrow=none;html=1;rounded=0;exitX=0;exitY=0.5;exitDx=0;exitDy=0;" edge="1" parent="1" source="l6QmSuYRG5UoU8oP4cPs-36">
          <mxGeometry width="50" height="50" relative="1" as="geometry">
            <mxPoint x="700" y="25" as="sourcePoint" />
            <mxPoint x="670" y="180" as="targetPoint" />
          </mxGeometry>
        </mxCell>
        <mxCell id="l6QmSuYRG5UoU8oP4cPs-60" value="" style="endArrow=none;html=1;rounded=0;exitX=0;exitY=0.5;exitDx=0;exitDy=0;" edge="1" parent="1" source="l6QmSuYRG5UoU8oP4cPs-35">
          <mxGeometry width="50" height="50" relative="1" as="geometry">
            <mxPoint x="700" y="190" as="sourcePoint" />
            <mxPoint x="670" y="225" as="targetPoint" />
          </mxGeometry>
        </mxCell>
        <mxCell id="l6QmSuYRG5UoU8oP4cPs-61" value="" style="endArrow=none;html=1;rounded=0;exitX=0;exitY=0.5;exitDx=0;exitDy=0;" edge="1" parent="1" source="l6QmSuYRG5UoU8oP4cPs-37">
          <mxGeometry width="50" height="50" relative="1" as="geometry">
            <mxPoint x="700" y="235" as="sourcePoint" />
            <mxPoint x="670" y="265" as="targetPoint" />
          </mxGeometry>
        </mxCell>
        <mxCell id="l6QmSuYRG5UoU8oP4cPs-62" value="" style="endArrow=none;html=1;rounded=0;exitX=0;exitY=0.5;exitDx=0;exitDy=0;" edge="1" parent="1" source="l6QmSuYRG5UoU8oP4cPs-38">
          <mxGeometry width="50" height="50" relative="1" as="geometry">
            <mxPoint x="700" y="275" as="sourcePoint" />
            <mxPoint x="670" y="305" as="targetPoint" />
          </mxGeometry>
        </mxCell>
        <mxCell id="l6QmSuYRG5UoU8oP4cPs-64" value="&lt;b&gt;用户管理模块&lt;/b&gt;" style="rounded=0;whiteSpace=wrap;html=1;" vertex="1" parent="1">
          <mxGeometry x="510" y="370" width="120" height="60" as="geometry" />
        </mxCell>
        <mxCell id="l6QmSuYRG5UoU8oP4cPs-65" value="" style="endArrow=none;html=1;rounded=0;" edge="1" parent="1">
          <mxGeometry width="50" height="50" relative="1" as="geometry">
            <mxPoint x="480" y="630" as="sourcePoint" />
            <mxPoint x="480" y="400" as="targetPoint" />
          </mxGeometry>
        </mxCell>
        <mxCell id="l6QmSuYRG5UoU8oP4cPs-66" value="&lt;b&gt;电子书管理模块&lt;/b&gt;" style="rounded=0;whiteSpace=wrap;html=1;" vertex="1" parent="1">
          <mxGeometry x="510" y="600" width="120" height="60" as="geometry" />
        </mxCell>
        <mxCell id="l6QmSuYRG5UoU8oP4cPs-67" value="" style="endArrow=none;html=1;rounded=0;entryX=0;entryY=0.5;entryDx=0;entryDy=0;" edge="1" parent="1" target="l6QmSuYRG5UoU8oP4cPs-64">
          <mxGeometry width="50" height="50" relative="1" as="geometry">
            <mxPoint x="480" y="400" as="sourcePoint" />
            <mxPoint x="490" y="500" as="targetPoint" />
          </mxGeometry>
        </mxCell>
        <mxCell id="l6QmSuYRG5UoU8oP4cPs-68" value="" style="endArrow=none;html=1;rounded=0;entryX=0;entryY=0.5;entryDx=0;entryDy=0;" edge="1" parent="1" target="l6QmSuYRG5UoU8oP4cPs-66">
          <mxGeometry width="50" height="50" relative="1" as="geometry">
            <mxPoint x="480" y="630" as="sourcePoint" />
            <mxPoint x="510" y="410" as="targetPoint" />
          </mxGeometry>
        </mxCell>
        <mxCell id="l6QmSuYRG5UoU8oP4cPs-69" value="" style="endArrow=none;html=1;rounded=0;exitX=1;exitY=0.5;exitDx=0;exitDy=0;" edge="1" parent="1" source="l6QmSuYRG5UoU8oP4cPs-10">
          <mxGeometry width="50" height="50" relative="1" as="geometry">
            <mxPoint x="450" y="175" as="sourcePoint" />
            <mxPoint x="480" y="540" as="targetPoint" />
          </mxGeometry>
        </mxCell>
        <mxCell id="l6QmSuYRG5UoU8oP4cPs-71" value="&lt;b&gt;分类管理模块&lt;/b&gt;" style="rounded=0;whiteSpace=wrap;html=1;" vertex="1" parent="1">
          <mxGeometry x="510" y="470" width="120" height="60" as="geometry" />
        </mxCell>
        <mxCell id="l6QmSuYRG5UoU8oP4cPs-72" value="" style="endArrow=none;html=1;rounded=0;entryX=0;entryY=0.5;entryDx=0;entryDy=0;" edge="1" parent="1" target="l6QmSuYRG5UoU8oP4cPs-71">
          <mxGeometry width="50" height="50" relative="1" as="geometry">
            <mxPoint x="480" y="500" as="sourcePoint" />
            <mxPoint x="510" y="500" as="targetPoint" />
          </mxGeometry>
        </mxCell>
        <mxCell id="l6QmSuYRG5UoU8oP4cPs-73" value="用户增加删除" style="rounded=1;whiteSpace=wrap;html=1;" vertex="1" parent="1">
          <mxGeometry x="690" y="370" width="110" height="30" as="geometry" />
        </mxCell>
        <mxCell id="l6QmSuYRG5UoU8oP4cPs-74" value="用户查询" style="rounded=1;whiteSpace=wrap;html=1;" vertex="1" parent="1">
          <mxGeometry x="690" y="330" width="110" height="30" as="geometry" />
        </mxCell>
        <mxCell id="l6QmSuYRG5UoU8oP4cPs-75" value="用户编辑" style="rounded=1;whiteSpace=wrap;html=1;" vertex="1" parent="1">
          <mxGeometry x="690" y="410" width="110" height="30" as="geometry" />
        </mxCell>
        <mxCell id="l6QmSuYRG5UoU8oP4cPs-77" value="" style="endArrow=none;html=1;rounded=0;" edge="1" parent="1">
          <mxGeometry width="50" height="50" relative="1" as="geometry">
            <mxPoint x="670" y="430" as="sourcePoint" />
            <mxPoint x="670" y="340" as="targetPoint" />
          </mxGeometry>
        </mxCell>
        <mxCell id="l6QmSuYRG5UoU8oP4cPs-78" value="" style="endArrow=none;html=1;rounded=0;exitX=0;exitY=0.5;exitDx=0;exitDy=0;" edge="1" parent="1" source="l6QmSuYRG5UoU8oP4cPs-74">
          <mxGeometry width="50" height="50" relative="1" as="geometry">
            <mxPoint x="500" y="595" as="sourcePoint" />
            <mxPoint x="670" y="345" as="targetPoint" />
          </mxGeometry>
        </mxCell>
        <mxCell id="l6QmSuYRG5UoU8oP4cPs-79" value="" style="endArrow=none;html=1;rounded=0;exitX=0;exitY=0.5;exitDx=0;exitDy=0;" edge="1" parent="1" source="l6QmSuYRG5UoU8oP4cPs-73">
          <mxGeometry width="50" height="50" relative="1" as="geometry">
            <mxPoint x="700" y="340" as="sourcePoint" />
            <mxPoint x="670" y="385" as="targetPoint" />
          </mxGeometry>
        </mxCell>
        <mxCell id="l6QmSuYRG5UoU8oP4cPs-80" value="" style="endArrow=none;html=1;rounded=0;exitX=0;exitY=0.5;exitDx=0;exitDy=0;" edge="1" parent="1" source="l6QmSuYRG5UoU8oP4cPs-75">
          <mxGeometry width="50" height="50" relative="1" as="geometry">
            <mxPoint x="710" y="350" as="sourcePoint" />
            <mxPoint x="670" y="425" as="targetPoint" />
          </mxGeometry>
        </mxCell>
        <mxCell id="l6QmSuYRG5UoU8oP4cPs-82" value="分类编辑" style="rounded=1;whiteSpace=wrap;html=1;" vertex="1" parent="1">
          <mxGeometry x="690" y="490" width="110" height="30" as="geometry" />
        </mxCell>
        <mxCell id="l6QmSuYRG5UoU8oP4cPs-83" value="分类增加" style="rounded=1;whiteSpace=wrap;html=1;" vertex="1" parent="1">
          <mxGeometry x="690" y="450" width="110" height="30" as="geometry" />
        </mxCell>
        <mxCell id="l6QmSuYRG5UoU8oP4cPs-86" value="" style="endArrow=none;html=1;rounded=0;" edge="1" parent="1">
          <mxGeometry width="50" height="50" relative="1" as="geometry">
            <mxPoint x="670" y="550" as="sourcePoint" />
            <mxPoint x="670" y="460" as="targetPoint" />
          </mxGeometry>
        </mxCell>
        <mxCell id="l6QmSuYRG5UoU8oP4cPs-87" value="" style="endArrow=none;html=1;rounded=0;exitX=0;exitY=0.5;exitDx=0;exitDy=0;" edge="1" parent="1" source="l6QmSuYRG5UoU8oP4cPs-83">
          <mxGeometry width="50" height="50" relative="1" as="geometry">
            <mxPoint x="500" y="715" as="sourcePoint" />
            <mxPoint x="670" y="465" as="targetPoint" />
          </mxGeometry>
        </mxCell>
        <mxCell id="l6QmSuYRG5UoU8oP4cPs-88" value="" style="endArrow=none;html=1;rounded=0;exitX=0;exitY=0.5;exitDx=0;exitDy=0;" edge="1" parent="1" source="l6QmSuYRG5UoU8oP4cPs-82">
          <mxGeometry width="50" height="50" relative="1" as="geometry">
            <mxPoint x="700" y="460" as="sourcePoint" />
            <mxPoint x="670" y="505" as="targetPoint" />
          </mxGeometry>
        </mxCell>
        <mxCell id="l6QmSuYRG5UoU8oP4cPs-89" value="" style="endArrow=none;html=1;rounded=0;exitX=0;exitY=0.5;exitDx=0;exitDy=0;" edge="1" parent="1" source="l6QmSuYRG5UoU8oP4cPs-91">
          <mxGeometry width="50" height="50" relative="1" as="geometry">
            <mxPoint x="690" y="540" as="sourcePoint" />
            <mxPoint x="670" y="545" as="targetPoint" />
          </mxGeometry>
        </mxCell>
        <mxCell id="l6QmSuYRG5UoU8oP4cPs-91" value="分类删除" style="rounded=1;whiteSpace=wrap;html=1;" vertex="1" parent="1">
          <mxGeometry x="690" y="530" width="110" height="30" as="geometry" />
        </mxCell>
        <mxCell id="l6QmSuYRG5UoU8oP4cPs-93" value="教程新增删除" style="rounded=1;whiteSpace=wrap;html=1;" vertex="1" parent="1">
          <mxGeometry x="690" y="610" width="110" height="30" as="geometry" />
        </mxCell>
        <mxCell id="l6QmSuYRG5UoU8oP4cPs-94" value="教程查询" style="rounded=1;whiteSpace=wrap;html=1;" vertex="1" parent="1">
          <mxGeometry x="690" y="570" width="110" height="30" as="geometry" />
        </mxCell>
        <mxCell id="l6QmSuYRG5UoU8oP4cPs-96" value="" style="endArrow=none;html=1;rounded=0;" edge="1" parent="1">
          <mxGeometry width="50" height="50" relative="1" as="geometry">
            <mxPoint x="670" y="670" as="sourcePoint" />
            <mxPoint x="670" y="580" as="targetPoint" />
          </mxGeometry>
        </mxCell>
        <mxCell id="l6QmSuYRG5UoU8oP4cPs-97" value="" style="endArrow=none;html=1;rounded=0;exitX=0;exitY=0.5;exitDx=0;exitDy=0;" edge="1" parent="1" source="l6QmSuYRG5UoU8oP4cPs-94">
          <mxGeometry width="50" height="50" relative="1" as="geometry">
            <mxPoint x="500" y="835" as="sourcePoint" />
            <mxPoint x="670" y="585" as="targetPoint" />
          </mxGeometry>
        </mxCell>
        <mxCell id="l6QmSuYRG5UoU8oP4cPs-98" value="" style="endArrow=none;html=1;rounded=0;exitX=0;exitY=0.5;exitDx=0;exitDy=0;" edge="1" parent="1" source="l6QmSuYRG5UoU8oP4cPs-93">
          <mxGeometry width="50" height="50" relative="1" as="geometry">
            <mxPoint x="700" y="580" as="sourcePoint" />
            <mxPoint x="670" y="625" as="targetPoint" />
          </mxGeometry>
        </mxCell>
        <mxCell id="l6QmSuYRG5UoU8oP4cPs-99" value="" style="endArrow=none;html=1;rounded=0;exitX=0;exitY=0.5;exitDx=0;exitDy=0;" edge="1" parent="1" source="l6QmSuYRG5UoU8oP4cPs-101">
          <mxGeometry width="50" height="50" relative="1" as="geometry">
            <mxPoint x="690" y="660" as="sourcePoint" />
            <mxPoint x="670" y="665" as="targetPoint" />
          </mxGeometry>
        </mxCell>
        <mxCell id="l6QmSuYRG5UoU8oP4cPs-101" value="教程编辑" style="rounded=1;whiteSpace=wrap;html=1;" vertex="1" parent="1">
          <mxGeometry x="690" y="650" width="110" height="30" as="geometry" />
        </mxCell>
        <mxCell id="l6QmSuYRG5UoU8oP4cPs-102" value="" style="endArrow=none;html=1;rounded=0;exitX=1;exitY=0.5;exitDx=0;exitDy=0;" edge="1" parent="1" source="l6QmSuYRG5UoU8oP4cPs-64">
          <mxGeometry width="50" height="50" relative="1" as="geometry">
            <mxPoint x="640" y="215" as="sourcePoint" />
            <mxPoint x="670" y="400" as="targetPoint" />
          </mxGeometry>
        </mxCell>
        <mxCell id="l6QmSuYRG5UoU8oP4cPs-103" value="" style="endArrow=none;html=1;rounded=0;exitX=1;exitY=0.5;exitDx=0;exitDy=0;" edge="1" parent="1" source="l6QmSuYRG5UoU8oP4cPs-71">
          <mxGeometry width="50" height="50" relative="1" as="geometry">
            <mxPoint x="640" y="360" as="sourcePoint" />
            <mxPoint x="670" y="500" as="targetPoint" />
          </mxGeometry>
        </mxCell>
        <mxCell id="l6QmSuYRG5UoU8oP4cPs-104" value="" style="endArrow=none;html=1;rounded=0;exitX=1.006;exitY=0.593;exitDx=0;exitDy=0;exitPerimeter=0;" edge="1" parent="1" source="l6QmSuYRG5UoU8oP4cPs-66">
          <mxGeometry width="50" height="50" relative="1" as="geometry">
            <mxPoint x="640" y="500" as="sourcePoint" />
            <mxPoint x="670" y="636" as="targetPoint" />
          </mxGeometry>
        </mxCell>
        <mxCell id="l6QmSuYRG5UoU8oP4cPs-106" value="" style="endArrow=none;html=1;rounded=0;exitX=1;exitY=0.5;exitDx=0;exitDy=0;" edge="1" parent="1" source="l6QmSuYRG5UoU8oP4cPs-34">
          <mxGeometry width="50" height="50" relative="1" as="geometry">
            <mxPoint x="500" y="260" as="sourcePoint" />
            <mxPoint x="670" y="250" as="targetPoint" />
          </mxGeometry>
        </mxCell>
        <mxCell id="l6QmSuYRG5UoU8oP4cPs-107" value="" style="rounded=1;whiteSpace=wrap;html=1;strokeColor=default;fontFamily=Helvetica;fontSize=12;fontColor=default;fillColor=default;" vertex="1" parent="1">
          <mxGeometry x="140" y="-100" width="120" height="60" as="geometry" />
        </mxCell>
      </root>
    </mxGraphModel>
  </diagram>
</mxfile>
